<svg width="715" height="757" viewBox="0 0 715 757" fill="none" xmlns="http://www.w3.org/2000/svg">
<g opacity="0.5">
<rect x="1" y="1" width="713" height="657" rx="19" fill="white" stroke="url(#paint0_linear)" stroke-width="2"/>
<line x1="8.74228e-08" y1="54" x2="715" y2="54.0001" stroke="url(#paint1_linear)" stroke-width="2"/>
<circle cx="28.5" cy="27.5" r="8.5" fill="url(#paint2_linear)" fill-opacity="0.8"/>
<circle opacity="0.6" cx="54.5" cy="27.5" r="8.5" fill="url(#paint3_linear)"/>
<circle opacity="0.4" cx="80.5" cy="27.5" r="8.5" fill="url(#paint4_linear)"/>
<rect x="20" y="103" width="531" height="42" fill="#00A6FB" fill-opacity="0.2"/>
<rect x="20" y="169" width="287" height="42" fill="#00A6FB" fill-opacity="0.2"/>
<rect x="20" y="344" width="203" height="24" rx="12" fill="#00A6FB" fill-opacity="0.2"/>
<rect x="20" y="388" width="134" height="14" fill="#00A6FB" fill-opacity="0.2"/>
<rect x="20" y="418" width="118" height="14" fill="#00A6FB" fill-opacity="0.2"/>
<rect x="20" y="448" width="77" height="14" fill="#00A6FB" fill-opacity="0.2"/>
<rect x="20" y="478" width="190" height="14" fill="#00A6FB" fill-opacity="0.2"/>
<rect x="28" y="269" width="244" height="26" fill="#00A6FB" fill-opacity="0.2"/>
<rect x="21" y="262" width="258" height="40" stroke="#00A6FB" stroke-opacity="0.2" stroke-width="2"/>
</g>
<g opacity="0.5">
<mask id="path-15-inside-1" fill="white">
<path fill-rule="evenodd" clip-rule="evenodd" d="M660.787 355.235H663.682V411.699H660.787V711.089C660.787 717.118 659.6 723.088 657.294 728.659C654.987 734.229 651.607 739.29 647.345 743.553C643.083 747.816 638.024 751.198 632.456 753.505C626.888 755.812 620.92 757 614.893 757H446.894C440.867 757 434.899 755.812 429.331 753.505C423.763 751.198 418.704 747.816 414.442 743.553C410.18 739.29 406.8 734.229 404.493 728.659C402.187 723.088 401 717.118 401 711.089V275.911C401 269.882 402.187 263.912 404.493 258.341C406.8 252.771 410.18 247.71 414.442 243.447C418.704 239.184 423.763 235.802 429.331 233.495C434.899 231.187 440.867 230 446.894 230H614.893C620.92 230 626.888 231.187 632.456 233.495C638.024 235.802 643.083 239.184 647.345 243.447C651.607 247.71 654.987 252.771 657.294 258.341C659.6 263.912 660.787 269.882 660.787 275.911V355.235ZM651.42 710.491V276.523C651.419 267.444 647.797 258.736 641.349 252.316C634.901 245.896 626.157 242.289 617.038 242.288H595.037C596.048 244.758 596.434 247.438 596.16 250.091C595.887 252.744 594.962 255.29 593.467 257.503C591.973 259.717 589.955 261.531 587.59 262.785C585.226 264.039 582.589 264.694 579.91 264.694H483.346C480.667 264.694 478.029 264.038 475.665 262.785C473.301 261.531 471.283 259.717 469.788 257.503C468.294 255.29 467.369 252.744 467.095 250.091C466.821 247.438 467.207 244.758 468.218 242.288H447.67C438.552 242.289 429.807 245.896 423.359 252.316C416.912 258.737 413.289 267.444 413.288 276.523V710.491C413.287 719.573 416.908 728.283 423.356 734.705C429.804 741.128 438.55 744.737 447.67 744.738H617.038C626.159 744.737 634.905 741.128 641.353 734.705C647.8 728.283 651.422 719.573 651.42 710.491Z"/>
</mask>
<path fill-rule="evenodd" clip-rule="evenodd" d="M660.787 355.235H663.682V411.699H660.787V711.089C660.787 717.118 659.6 723.088 657.294 728.659C654.987 734.229 651.607 739.29 647.345 743.553C643.083 747.816 638.024 751.198 632.456 753.505C626.888 755.812 620.92 757 614.893 757H446.894C440.867 757 434.899 755.812 429.331 753.505C423.763 751.198 418.704 747.816 414.442 743.553C410.18 739.29 406.8 734.229 404.493 728.659C402.187 723.088 401 717.118 401 711.089V275.911C401 269.882 402.187 263.912 404.493 258.341C406.8 252.771 410.18 247.71 414.442 243.447C418.704 239.184 423.763 235.802 429.331 233.495C434.899 231.187 440.867 230 446.894 230H614.893C620.92 230 626.888 231.187 632.456 233.495C638.024 235.802 643.083 239.184 647.345 243.447C651.607 247.71 654.987 252.771 657.294 258.341C659.6 263.912 660.787 269.882 660.787 275.911V355.235ZM651.42 710.491V276.523C651.419 267.444 647.797 258.736 641.349 252.316C634.901 245.896 626.157 242.289 617.038 242.288H595.037C596.048 244.758 596.434 247.438 596.16 250.091C595.887 252.744 594.962 255.29 593.467 257.503C591.973 259.717 589.955 261.531 587.59 262.785C585.226 264.039 582.589 264.694 579.91 264.694H483.346C480.667 264.694 478.029 264.038 475.665 262.785C473.301 261.531 471.283 259.717 469.788 257.503C468.294 255.29 467.369 252.744 467.095 250.091C466.821 247.438 467.207 244.758 468.218 242.288H447.67C438.552 242.289 429.807 245.896 423.359 252.316C416.912 258.737 413.289 267.444 413.288 276.523V710.491C413.287 719.573 416.908 728.283 423.356 734.705C429.804 741.128 438.55 744.737 447.67 744.738H617.038C626.159 744.737 634.905 741.128 641.353 734.705C647.8 728.283 651.422 719.573 651.42 710.491Z" fill="white"/>
<path d="M663.682 355.235H665.682V353.235H663.682V355.235ZM660.787 355.235H658.787V357.235H660.787V355.235ZM663.682 411.699V413.699H665.682V411.699H663.682ZM660.787 411.699V409.699H658.787V411.699H660.787ZM647.345 743.553L648.759 744.967L647.345 743.553ZM632.456 753.505L633.221 755.353H633.221L632.456 753.505ZM429.331 753.505L428.566 755.353H428.566L429.331 753.505ZM414.442 743.553L413.028 744.967H413.028L414.442 743.553ZM404.493 728.659L402.646 729.424H402.646L404.493 728.659ZM401 711.089H403H401ZM401 275.911H403V275.911L401 275.911ZM404.493 258.341L402.646 257.576L404.493 258.341ZM414.442 243.447L415.857 244.861V244.861L414.442 243.447ZM429.331 233.495L430.097 235.342L429.331 233.495ZM446.894 230L446.894 232H446.894V230ZM614.893 230V232V230ZM632.456 233.495L633.221 231.647V231.647L632.456 233.495ZM647.345 243.447L645.93 244.861L645.931 244.861L647.345 243.447ZM657.294 258.341L655.446 259.107V259.107L657.294 258.341ZM651.42 276.523H653.42V276.523L651.42 276.523ZM651.42 710.491H649.42V710.492L651.42 710.491ZM641.349 252.316L639.938 253.734L641.349 252.316ZM617.038 242.288L617.039 240.288H617.038V242.288ZM595.037 242.288V240.288H592.057L593.186 243.046L595.037 242.288ZM587.59 262.785L586.653 261.018L587.59 262.785ZM579.91 264.694L579.91 262.694H579.91V264.694ZM483.346 264.694V262.694H483.346L483.346 264.694ZM475.665 262.785L474.728 264.551H474.728L475.665 262.785ZM468.218 242.288L470.069 243.046L471.198 240.288H468.218V242.288ZM447.67 242.288V240.288H447.67L447.67 242.288ZM423.359 252.316L421.948 250.899L423.359 252.316ZM413.288 276.523L411.288 276.523V276.523H413.288ZM413.288 710.491L415.288 710.492V710.491H413.288ZM423.356 734.705L424.767 733.288H424.767L423.356 734.705ZM447.67 744.738L447.669 746.738H447.67V744.738ZM617.038 744.738V746.738H617.039L617.038 744.738ZM641.353 734.705L639.941 733.288L641.353 734.705ZM663.682 353.235H660.787V357.235H663.682V353.235ZM665.682 411.699V355.235H661.682V411.699H665.682ZM660.787 413.699H663.682V409.699H660.787V413.699ZM662.787 711.089V411.699H658.787V711.089H662.787ZM659.141 729.424C661.548 723.611 662.787 717.381 662.787 711.089H658.787C658.787 716.856 657.652 722.566 655.446 727.893L659.141 729.424ZM648.759 744.967C653.207 740.518 656.735 735.236 659.141 729.424L655.446 727.893C653.24 733.221 650.007 738.062 645.931 742.139L648.759 744.967ZM633.221 755.353C639.032 752.945 644.312 749.416 648.759 744.967L645.931 742.139C641.855 746.217 637.016 749.451 631.69 751.658L633.221 755.353ZM614.893 759C621.182 759 627.411 757.761 633.221 755.353L631.69 751.658C626.365 753.864 620.657 755 614.893 755V759ZM446.894 759H614.893V755H446.894V759ZM428.566 755.353C434.377 757.761 440.605 759 446.894 759V755C441.13 755 435.422 753.864 430.097 751.658L428.566 755.353ZM413.028 744.967C417.475 749.416 422.755 752.945 428.566 755.353L430.097 751.658C424.771 749.451 419.933 746.217 415.857 742.139L413.028 744.967ZM402.646 729.424C405.052 735.236 408.58 740.518 413.028 744.967L415.857 742.139C411.781 738.062 408.547 733.221 406.341 727.893L402.646 729.424ZM399 711.089C399 717.381 400.239 723.611 402.646 729.424L406.341 727.893C404.135 722.566 403 716.856 403 711.089H399ZM399 275.911V711.089H403V275.911H399ZM402.646 257.576C400.239 263.389 399 269.619 399 275.911L403 275.911C403 270.144 404.135 264.434 406.341 259.107L402.646 257.576ZM413.028 242.033C408.58 246.482 405.052 251.764 402.646 257.576L406.341 259.107C408.547 253.779 411.781 248.938 415.857 244.861L413.028 242.033ZM428.566 231.647C422.755 234.055 417.475 237.584 413.028 242.033L415.857 244.861C419.933 240.783 424.771 237.549 430.097 235.342L428.566 231.647ZM446.894 228C440.605 228 434.377 229.239 428.566 231.647L430.097 235.342C435.422 233.136 441.13 232 446.894 232L446.894 228ZM614.893 228H446.894V232H614.893V228ZM633.221 231.647C627.411 229.239 621.182 228 614.893 228V232C620.657 232 626.365 233.136 631.69 235.342L633.221 231.647ZM648.759 242.033C644.312 237.584 639.032 234.055 633.221 231.647L631.69 235.342C637.016 237.549 641.855 240.783 645.93 244.861L648.759 242.033ZM659.141 257.576C656.735 251.764 653.207 246.482 648.759 242.033L645.931 244.861C650.007 248.938 653.24 253.779 655.446 259.107L659.141 257.576ZM662.787 275.911C662.787 269.619 661.548 263.389 659.141 257.576L655.446 259.107C657.652 264.434 658.787 270.144 658.787 275.911H662.787ZM662.787 355.235V275.911H658.787V355.235H662.787ZM649.42 276.523V710.491H653.42V276.523H649.42ZM639.938 253.734C646.009 259.779 649.419 267.977 649.42 276.523L653.42 276.523C653.419 266.91 649.584 257.694 642.76 250.899L639.938 253.734ZM617.038 244.288C625.629 244.289 633.866 247.688 639.938 253.734L642.76 250.899C635.937 244.105 626.685 240.289 617.039 240.288L617.038 244.288ZM595.037 244.288H617.038V240.288H595.037V244.288ZM598.15 250.296C598.457 247.315 598.024 244.305 596.888 241.53L593.186 243.046C594.073 245.211 594.411 247.56 594.171 249.886L598.15 250.296ZM595.125 258.623C596.803 256.137 597.842 253.277 598.15 250.296L594.171 249.886C593.931 252.211 593.12 254.443 591.81 256.384L595.125 258.623ZM588.528 264.551C591.181 263.144 593.447 261.108 595.125 258.623L591.81 256.384C590.499 258.326 588.728 259.917 586.653 261.018L588.528 264.551ZM579.91 266.694C582.915 266.694 585.874 265.959 588.528 264.551L586.653 261.018C584.578 262.118 582.262 262.694 579.91 262.694L579.91 266.694ZM483.346 266.694H579.91V262.694H483.346V266.694ZM474.728 264.551C477.381 265.959 480.341 266.694 483.346 266.694L483.346 262.694C480.993 262.694 478.678 262.118 476.602 261.018L474.728 264.551ZM468.131 258.623C469.809 261.108 472.075 263.144 474.728 264.551L476.602 261.018C474.527 259.917 472.756 258.326 471.446 256.384L468.131 258.623ZM465.106 250.296C465.413 253.277 466.452 256.137 468.131 258.623L471.446 256.384C470.135 254.443 469.325 252.211 469.085 249.886L465.106 250.296ZM466.367 241.53C465.231 244.305 464.798 247.315 465.106 250.296L469.085 249.886C468.845 247.56 469.183 245.211 470.069 243.046L466.367 241.53ZM447.67 244.288H468.218V240.288H447.67V244.288ZM424.771 253.734C430.843 247.688 439.079 244.289 447.67 244.288L447.67 240.288C438.024 240.289 428.771 244.105 421.948 250.899L424.771 253.734ZM415.288 276.523C415.289 267.977 418.699 259.779 424.771 253.734L421.948 250.899C415.125 257.694 411.289 266.91 411.288 276.523L415.288 276.523ZM415.288 710.491V276.523H411.288V710.491H415.288ZM424.767 733.288C418.695 727.24 415.287 719.04 415.288 710.492L411.288 710.491C411.287 720.105 415.121 729.325 421.944 736.122L424.767 733.288ZM447.67 742.738C439.078 742.737 430.839 739.337 424.767 733.288L421.944 736.122C428.768 742.919 438.022 746.737 447.669 746.738L447.67 742.738ZM617.038 742.738H447.67V746.738H617.038V742.738ZM639.941 733.288C633.869 739.337 625.631 742.737 617.038 742.738L617.039 746.738C626.687 746.737 635.94 742.919 642.764 736.122L639.941 733.288ZM649.42 710.492C649.422 719.04 646.013 727.24 639.941 733.288L642.764 736.122C649.588 729.325 653.422 720.105 653.42 710.491L649.42 710.492Z" fill="url(#paint5_linear)" mask="url(#path-15-inside-1)"/>
</g>
<rect x="465" y="505" width="134" height="14" fill="#00A6FB" fill-opacity="0.2"/>
<rect x="473" y="533" width="118" height="14" fill="#00A6FB" fill-opacity="0.2"/>
<rect x="494" y="561" width="77" height="14" fill="#00A6FB" fill-opacity="0.2"/>
<circle opacity="0.2" cx="531.5" cy="362.5" r="49.5" fill="url(#paint6_linear)"/>
<rect opacity="0.2" x="448" y="442" width="167" height="33" rx="16.5" fill="url(#paint7_linear)"/>
<defs>
<linearGradient id="paint0_linear" x1="357.5" y1="0" x2="357.5" y2="659" gradientUnits="userSpaceOnUse">
<stop stop-color="#00A6FB"/>
<stop offset="1" stop-color="white"/>
</linearGradient>
<linearGradient id="paint1_linear" x1="357.5" y1="55" x2="357.5" y2="56" gradientUnits="userSpaceOnUse">
<stop stop-color="#00A6FB"/>
<stop offset="1" stop-color="white"/>
</linearGradient>
<linearGradient id="paint2_linear" x1="28.5" y1="19" x2="28.5" y2="36" gradientUnits="userSpaceOnUse">
<stop stop-color="#00A6FB"/>
<stop offset="1" stop-color="white" stop-opacity="0"/>
</linearGradient>
<linearGradient id="paint3_linear" x1="54.5" y1="19" x2="54.5" y2="36" gradientUnits="userSpaceOnUse">
<stop stop-color="#00A6FB"/>
<stop offset="1" stop-color="white"/>
</linearGradient>
<linearGradient id="paint4_linear" x1="80.5" y1="19" x2="80.5" y2="36" gradientUnits="userSpaceOnUse">
<stop stop-color="#00A6FB"/>
<stop offset="1" stop-color="white"/>
</linearGradient>
<linearGradient id="paint5_linear" x1="532.341" y1="230" x2="532.341" y2="757" gradientUnits="userSpaceOnUse">
<stop stop-color="#00A6FB"/>
<stop offset="1" stop-color="white"/>
</linearGradient>
<linearGradient id="paint6_linear" x1="531.5" y1="313" x2="531.5" y2="412" gradientUnits="userSpaceOnUse">
<stop stop-color="#00A6FB"/>
<stop offset="1" stop-color="white"/>
</linearGradient>
<linearGradient id="paint7_linear" x1="531.5" y1="442" x2="531.5" y2="475" gradientUnits="userSpaceOnUse">
<stop stop-color="#00A6FB"/>
<stop offset="1" stop-color="white"/>
</linearGradient>
</defs>
</svg>
