<?xml version="1.0" encoding="utf-8"?>
<!-- Generator: Adobe Illustrator 19.0.0, SVG Export Plug-In . SVG Version: 6.00 Build 0)  -->
<svg version="1.0" id="Réteg_1" xmlns="http://www.w3.org/2000/svg" xmlns:xlink="http://www.w3.org/1999/xlink" x="0px" y="0px"
	 viewBox="0 0 608.6 136.3" enable-background="new 0 0 608.6 136.3" xml:space="preserve">
<path id="XMLID_24_" fill="#EFB706" d="M454.5,111.1c-6.2,0-11-5-11-11.5c0-6.3,4.9-11.3,11-11.3c6.2,0,11.2,5,11.2,11.3
	C465.6,106.1,460.6,111.1,454.5,111.1z"/>
<circle id="XMLID_56_" fill="#EFB706" cx="83.8" cy="78.8" r="16.7"/>
<path id="XMLID_55_" fill="#EFB706" d="M103.5,98.3H64c-3.9,0-7.3,4.5-8.5,10.7c1.3,1.1,2.6,2.1,4,3c17,11.6,37.5,9.6,52.6-3
	C110.8,102.8,107.4,98.3,103.5,98.3z"/>
<path id="XMLID_14_" fill="#1D1D1B" d="M224.8,4.5h19.6v105.4h-19.6V4.5z"/>
<path id="XMLID_16_" fill="#1D1D1B" d="M257.7,4.5h19.6v105.4h-19.6V4.5z"/>
<path id="XMLID_18_" fill="#1D1D1B" d="M366.5,34v75.9H347v-5.6c-6.3,4.2-13.8,6.7-22.2,6.7C301,111,287,91.8,287,71.7
	c0-20.3,14-39.3,37.7-39.3c8,0,15.8,2.5,22.2,6.3V34H366.5z M347,56.6c-4.8-4.1-11.5-6.6-18.7-6.6c-13.8,0-22.5,10.3-22.5,21.7
	c0,11.5,8.8,21.8,22.5,21.8c7.4,0,14-2.4,18.7-6.4V56.6z M334.6,24.7h-12L339.3,0l21.1,1.8L334.6,24.7z"/>
<path id="XMLID_22_" fill="#1D1D1B" d="M382,89.3c9.4,4.1,16.5,6.2,26,6.2c8.9,0,12.4-3.4,12.4-7.3c0-4.3-4.3-6.3-16.1-8.8
	c-16.4-3.6-28.2-8.9-28.2-23.6c0-13.7,11.3-23.2,28.9-23.2c11.9,0,21.4,2.8,29.6,6.2L428.3,53c-7.4-2.8-16.1-4.9-23.6-4.9
	c-7.4,0-11.2,2.7-11.2,6.7c0,4.2,4.6,6.2,16.8,8.7c17.6,3.6,27.8,9.8,27.8,23.6c0,14.4-11,23.9-30.5,23.9c-13.1,0-21.7-1.8-32.9-7.3
	L382,89.3z"/>
<path id="XMLID_26_" fill="#1D1D1B" d="M494.5,44.6c5.2-7.1,13.1-11.9,23.9-12c1.4,0,3.2,0.3,4.8,0.8v21.1c0,0-5.3-1.1-9.4-1.1
	c-14,0-19.3,9.9-19.3,19.9v36.6h-19.6V34h19.6V44.6z"/>
<path id="XMLID_28_" fill="#1D1D1B" d="M608.6,71.9c0,21.7-18.6,39.1-41.5,39.1s-41.5-17.5-41.5-39.1c0-21.8,18.6-39.3,41.5-39.3
	S608.6,50,608.6,71.9z M589.4,71.9c0-12-9.9-21.8-22.4-21.8c-12.3,0-22.4,9.8-22.4,21.8c0,11.9,10.1,21.7,22.4,21.7
	C579.5,93.5,589.4,83.7,589.4,71.9z"/>
<path id="XMLID_99_" fill="#1D1D1B" d="M120.3-1.6l-15.7,27.5l1.7,0.7c1.6,0.7,3.2,1.4,4.7,2.3c1.4,0.8,2.9,1.8,4.3,2.8l1.5,1.1
	l15.7-27.5L120.3-1.6z"/>
<path id="XMLID_101_" fill="none" d="M151.3,71.7c0,11.5,8.8,21.8,22.5,21.8c7.4,0,14-2.4,18.7-6.4V56.6c-4.8-4.1-11.5-6.6-18.7-6.6
	C160,50,151.3,60.4,151.3,71.7z"/>
<polygon id="XMLID_102_" fill="#1D1D1B" points="206,1.8 184.9,0 168.1,24.7 180.1,24.7 "/>
<path id="XMLID_112_" fill="#1D1D1B" d="M192.6,34v4.8c-6.4-3.8-14.3-6.3-22.2-6.3c-17.1,0-29.1,9.8-34.5,22.8
	c2.7,6.6,4.2,13.8,4.2,21.4c0,5.4-0.8,10.6-2.2,15.6c6.1,10.9,17.3,18.7,32.5,18.7c8.4,0,15.9-2.5,22.2-6.7v5.6H212V34H192.6z
	 M192.6,87.1c-4.8,4.1-11.3,6.4-18.7,6.4c-13.7,0-22.5-10.3-22.5-21.8c0-11.3,8.7-21.7,22.5-21.7c7.3,0,14,2.5,18.7,6.6V87.1z"/>
<path id="XMLID_113_" fill="#1D1D1B" d="M34.4,49.6V34H14.8v68.6c0,12.9-2.2,17.1-12.3,17.1c-0.8,0-1.7-0.1-2.5-0.1v15.7
	c2.8,0.6,6.6,1.1,11.5,1.1c12.6,0,22.9-8.1,22.9-23.9v-8.7c-4.4-8-7-17.3-7-27.1S30,57.6,34.4,49.6z"/>
<path id="XMLID_114_" fill="#1D1D1B" d="M24.6,25.7c6,0,11-5,11-11.3s-5-11.5-11-11.5c-6.2,0-11.2,5.2-11.2,11.5
	S18.5,25.7,24.6,25.7z"/>
<path id="XMLID_123_" fill="#1D1D1B" d="M135.7,74.3c0-0.3,0-0.5,0-0.8c0-0.5-0.1-1.1-0.1-1.6c0-0.3,0-0.6-0.1-0.8
	c-0.1-0.7-0.2-1.3-0.3-2c-0.1-0.4-0.1-0.9-0.2-1.3c0-0.3-0.1-0.5-0.1-0.8c-0.1-0.5-0.2-1-0.3-1.5c0,0,0-0.1,0-0.1
	c-0.3-1.2-0.6-2.3-0.9-3.5c0,0,0,0,0,0v0c-0.7-2.3-1.5-4.6-2.5-6.8c-0.3-0.7-0.6-1.3-0.9-1.9c-0.7-1.3-1.4-2.6-2.1-3.8
	c-0.3-0.4-0.5-0.8-0.8-1.3c-0.5-0.8-1.1-1.6-1.6-2.3c-0.2-0.3-0.4-0.5-0.6-0.8c-0.5-0.7-1.1-1.3-1.6-2c-0.5-0.6-1-1.1-1.4-1.6
	c-0.7-0.7-1.4-1.5-2.1-2.2c0,0,0,0,0,0c-1-1-2-1.9-3.1-2.7c-0.7-0.6-1.4-1.1-2.1-1.6c-1-0.7-1.9-1.4-2.9-2
	c-8.1-5.2-17.7-8.2-28.1-8.2c-22.9,0-42.5,14.9-49.4,35.6c-0.2,0.6-0.4,1.3-0.6,1.9c0,0,0,0,0,0.1c-0.5,1.8-0.9,3.6-1.3,5.5
	c0,0.2-0.1,0.4-0.1,0.6c-0.1,0.4-0.1,0.9-0.2,1.3c-0.1,0.4-0.1,0.8-0.1,1.1c0,0.4-0.1,0.7-0.1,1.1c0,0.5-0.1,1-0.1,1.5
	c0,0.3,0,0.6-0.1,0.9c0,0.8-0.1,1.6-0.1,2.4s0,1.6,0.1,2.4c0,0.3,0,0.6,0.1,0.9c0,0.5,0.1,1,0.1,1.5c0,0.4,0.1,0.7,0.1,1.1
	c0,0.4,0.1,0.8,0.1,1.1c0.1,0.4,0.1,0.9,0.2,1.3c0,0.2,0.1,0.4,0.1,0.6c0.3,1.9,0.8,3.7,1.3,5.5c0,0,0,0,0,0.1
	c0.2,0.6,0.4,1.3,0.6,1.9c6.9,20.7,26.4,35.6,49.4,35.6c8,0,15.6-1.8,22.3-5c1.4-0.6,2.7-1.3,4-2.1c0.6-0.4,1.3-0.8,1.9-1.2
	c1.3-0.8,2.5-1.7,3.6-2.6c1.2-0.9,2.3-1.9,3.4-2.9c1.1-1,2.1-2.1,3.1-3.2c6.5-7.1,11.1-16.1,12.8-25.9l0,0c0.1-0.7,0.2-1.4,0.3-2.2
	c0-0.1,0-0.1,0-0.2c0.1-0.7,0.2-1.3,0.2-2c0-0.3,0-0.5,0.1-0.8c0-0.5,0.1-1,0.1-1.5c0-0.8,0.1-1.6,0.1-2.5
	C135.8,75.9,135.8,75.1,135.7,74.3z M83.8,123.4c-25.8,0-46.7-21-46.7-46.7S58,30,83.8,30c25.8,0,46.7,21,46.7,46.7
	S109.5,123.4,83.8,123.4z"/>
</svg>
