<svg width="42" height="42" viewBox="0 0 42 42" fill="none" xmlns="http://www.w3.org/2000/svg">
<g clip-path="url(#clip0)">
<path d="M8.97882 20.0181L20.0186 8.98001L16.3994 5.3608L11.3397 10.4205C11.2793 10.4809 11.2077 10.5289 11.1288 10.5616C11.0499 10.5943 10.9653 10.6112 10.8799 10.6112C10.7945 10.6112 10.7099 10.5943 10.631 10.5616C10.5521 10.5289 10.4804 10.4809 10.4201 10.4205L9.50054 9.50091C9.24624 9.24661 9.24624 8.83482 9.50054 8.58134L14.5602 3.52165L11.8007 0.761303C10.7843 -0.255064 9.13714 -0.255064 8.12078 0.761303L0.761753 8.12033C-0.253794 9.13669 -0.254614 10.7839 0.761753 11.8002L8.97882 20.0181ZM40.8455 10.4369C42.3844 8.89798 42.3836 6.40341 40.8455 4.86451L37.1336 1.15259C35.5947 -0.386313 33.0993 -0.386313 31.5596 1.15259L27.7845 4.92685L37.0704 14.2128L40.8455 10.4369ZM25.9281 6.78404L1.56484 31.144L0.0259326 39.9575C-0.181606 41.1461 0.853628 42.1813 2.04308 41.9722L10.8573 40.4267L35.2141 16.0692L25.9281 6.78404ZM41.2376 30.1982L38.4781 27.4387L33.4184 32.4984C33.1641 32.7527 32.7523 32.7527 32.4988 32.4984L31.5793 31.5788C31.3258 31.3245 31.3258 30.9127 31.5793 30.6592L36.6389 25.5995L33.0181 21.9787L21.9783 33.0168L30.1987 41.2363C31.215 42.2527 32.8622 42.2527 33.8786 41.2363L41.2376 33.8781C42.254 32.8618 42.254 31.2146 41.2376 30.1982Z" fill="#F5DF4D"/>
</g>
<defs>
<clipPath id="clip0">
<rect width="42" height="42" fill="white"/>
</clipPath>
</defs>
</svg>
