<svg width="32" height="42" viewBox="0 0 32 42" fill="none" xmlns="http://www.w3.org/2000/svg">
<path d="M16.5719 0C10.0243 0 5.78335 2.68267 2.45378 7.46698C1.84978 8.33487 2.036 9.52481 2.87854 10.1637L6.4172 12.8468C7.26811 13.492 8.47881 13.3412 9.14499 12.5066C11.1998 9.93234 12.724 8.4502 15.9336 8.4502C18.4573 8.4502 21.5787 10.0743 21.5787 12.5215C21.5787 14.3715 20.0515 15.3216 17.5598 16.7185C14.654 18.3477 10.8087 20.3752 10.8087 25.4471V26.25C10.8087 27.3373 11.6901 28.2188 12.7774 28.2188H18.7223C19.8096 28.2188 20.6911 27.3373 20.6911 26.25V25.7764C20.6911 22.2606 30.9669 22.1141 30.9669 12.6C30.967 5.43506 23.5348 0 16.5719 0ZM15.7499 30.6353C12.6166 30.6353 10.0675 33.1844 10.0675 36.3177C10.0675 39.4509 12.6166 42 15.7499 42C18.8832 42 21.4323 39.4509 21.4323 36.3176C21.4323 33.1843 18.8832 30.6353 15.7499 30.6353Z" fill="#F5DF4D"/>
</svg>
