<?xml version="1.0" encoding="utf-8"?>
<!-- Generator: Adobe Illustrator 23.0.2, SVG Export Plug-In . SVG Version: 6.00 Build 0)  -->
<svg version="1.1" xmlns="http://www.w3.org/2000/svg" xmlns:xlink="http://www.w3.org/1999/xlink" x="0px" y="0px"
	 viewBox="0 0 595.28 240.38" style="enable-background:new 0 0 595.28 240.38;" xml:space="preserve">
<style type="text/css">
	.st0{fill:#262626;}
	.st1{fill:none;}
	.st2{fill:#FEDE00;}
	.st3{fill:#FFFFFF;}
</style>
<g id="Layer_1">
	<path class="st0" d="M52.44,78.65c-6.92,3.43-13.38,7.78-19.37,13.05v63.35H5.25V51.26H19.8l9.2,17.33
		c4.99-4.42,10.84-8.42,17.55-11.98c6.7-3.56,12.63-5.35,17.76-5.35l5.57,22.26C65.17,73.52,59.36,75.23,52.44,78.65z"/>
	<path class="st0" d="M129.59,48.48c10.41,0,19.19,2.43,26.32,7.28c7.13,4.85,12.41,11.38,15.84,19.58
		c3.43,8.21,5.14,17.37,5.14,27.5v8.56H106.9c1.43,7.28,4.53,12.84,9.31,16.69c4.78,3.85,12.09,5.78,21.94,5.78
		c5.7,0,10.84-0.78,15.41-2.36c4.57-1.57,9.49-3.85,14.77-6.85l8.13,20.12c-5.28,4.14-10.99,7.31-17.12,9.52
		c-6.14,2.21-13.41,3.32-21.83,3.32c-19.69,0-34.64-4.82-44.84-14.45c-10.2-9.63-15.3-22.93-15.3-39.91
		c0-10.98,2.1-20.62,6.31-28.89c4.21-8.27,10.24-14.66,18.09-19.15C109.61,50.72,118.89,48.48,129.59,48.48z M128.95,72.23
		c-5.71,0-10.49,1.75-14.34,5.24c-3.85,3.5-6.35,8.6-7.49,15.3h43.45c-1.43-6.85-3.96-11.98-7.6-15.41
		C139.33,73.94,134.65,72.23,128.95,72.23z"/>
	<path class="st0" d="M295.45,102.84c0,10.85-2.11,20.41-6.31,28.68c-4.21,8.28-10.31,14.7-18.3,19.26
		c-7.99,4.56-17.48,6.85-28.46,6.85c-4.28,0-8.78-0.93-13.48-2.78c-4.71-1.85-9.06-4.21-13.05-7.06l-5.57,7.28h-14.12V6.31
		l27.61-2.35v49.22c6.28-3.14,12.77-4.71,19.47-4.71c16.12,0,28.86,4.89,38.2,14.66C290.78,72.91,295.45,86.14,295.45,102.84z
		 M266.77,102.84c0-9.13-2.18-16.51-6.53-22.15c-4.35-5.64-10.38-8.45-18.09-8.45c-5.99,0-12.13,2.07-18.4,6.21v49.44
		c5.85,4,11.98,5.99,18.4,5.99c7.56,0,13.55-2.89,17.98-8.67C264.56,119.42,266.77,111.97,266.77,102.84z"/>
	<path class="st0" d="M555.36,51.47h18.83l8.56,21.4h-27.39v44.09c0,5.56,1.32,10.06,3.96,13.48c2.64,3.43,6.39,5.14,11.24,5.14
		c3.71,0,7.49-0.93,11.34-2.78l8.13,20.12c-2.14,1.71-5.32,3.21-9.52,4.49c-4.21,1.29-8.03,1.93-11.45,1.93
		c-12.98,0-23.12-3.28-30.39-9.84c-7.28-6.56-10.91-15.76-10.91-27.61V72.87h-13.91v-21.4h13.91V26.86l27.61-4.92V51.47z"/>
	<g>
		<path class="st1" d="M361.58,72.23c-7.71,0-14.09,2.92-19.15,8.77c-5.07,5.85-7.6,13.27-7.6,22.26s2.49,16.34,7.49,22.04
			c4.99,5.71,11.41,8.56,19.26,8.56c7.71,0,14.09-2.92,19.15-8.78c5.06-5.85,7.6-13.27,7.6-22.26s-2.5-16.33-7.49-22.04
			C375.85,75.09,369.43,72.23,361.58,72.23z"/>
		<path class="st0" d="M499.5,74.05c-4.57-8.2-11.02-14.52-19.37-18.94c-4.56-2.42-9.59-4.11-14.98-5.21v26.47
			c1.81,1.22,3.5,2.67,5.03,4.42c4.99,5.71,7.49,13.05,7.49,22.04s-2.54,16.41-7.6,22.26c-5.07,5.85-11.45,8.78-19.15,8.78
			c-7.85,0-14.27-2.85-19.26-8.56c-5-5.7-7.49-13.05-7.49-22.04s2.53-16.41,7.6-22.26c1.59-1.84,3.33-3.35,5.18-4.61V49.88
			c-5.49,1.11-10.6,2.84-15.24,5.33c-6.14,3.31-11.24,7.66-15.34,13.02c-4.13-5.43-9.32-9.81-15.57-13.12
			c-8.35-4.42-18.09-6.63-29.21-6.63s-20.87,2.25-29.21,6.74c-8.35,4.5-14.8,10.88-19.37,19.15c-4.57,8.28-6.85,17.91-6.85,28.89
			c0,10.99,2.28,20.58,6.85,28.78c4.57,8.21,11.02,14.52,19.37,18.94c8.35,4.42,18.09,6.64,29.21,6.64s20.87-2.25,29.21-6.74
			c6.14-3.31,11.24-7.66,15.34-13.01c4.13,5.43,9.32,9.81,15.57,13.12c8.35,4.42,18.09,6.64,29.21,6.64s20.87-2.25,29.21-6.74
			c8.35-4.49,14.8-10.88,19.37-19.15c4.57-8.27,6.85-17.91,6.85-28.89C506.35,91.85,504.06,82.26,499.5,74.05z M380.74,125.09
			c-5.07,5.85-11.45,8.78-19.15,8.78c-7.85,0-14.27-2.85-19.26-8.56c-5-5.7-7.49-13.05-7.49-22.04s2.53-16.41,7.6-22.26
			c5.06-5.85,11.45-8.77,19.15-8.77c7.84,0,14.27,2.85,19.26,8.56c4.99,5.71,7.49,13.05,7.49,22.04S385.8,119.25,380.74,125.09z"/>
	</g>
	<rect x="440.89" y="39.61" class="st2" width="20.05" height="64.37"/>
	<g>
		<g>
			<path class="st0" d="M324.01,213.72c1.77,0,3.37-0.19,4.8-0.57c1.43-0.38,3.01-0.98,4.73-1.79l2.37,5.88
				c-1.48,1.05-3.42,1.89-5.81,2.51c-2.39,0.62-4.42,0.93-6.09,0.93c-3.64,0-6.79-0.76-9.47-2.29c-2.68-1.53-4.74-3.67-6.2-6.42
				c-1.46-2.75-2.19-5.96-2.19-9.64c0-3.63,0.73-6.82,2.19-9.57c1.46-2.75,3.55-4.89,6.27-6.42c2.72-1.53,5.9-2.3,9.53-2.3
				c1.63,0,3.64,0.32,6.03,0.97c2.39,0.65,4.32,1.5,5.81,2.55l-2.29,5.74c-1.86-0.81-3.5-1.41-4.91-1.79
				c-1.41-0.38-2.95-0.57-4.63-0.57c-2.87,0-5.2,1.08-6.99,3.23c-1.79,2.15-2.71,4.88-2.76,8.17c0,3.4,0.87,6.14,2.62,8.25
				C318.76,212.66,321.09,213.72,324.01,213.72z"/>
			<path class="st0" d="M357.57,220.67c-3.64,0-6.79-0.76-9.47-2.29c-2.68-1.53-4.74-3.67-6.2-6.42c-1.46-2.75-2.19-5.96-2.19-9.64
				c0-3.63,0.73-6.82,2.19-9.57c1.46-2.75,3.55-4.89,6.27-6.42c2.72-1.53,5.9-2.3,9.53-2.3c3.64,0,6.8,0.75,9.5,2.26
				c2.7,1.51,4.78,3.65,6.24,6.42c1.46,2.77,2.19,5.98,2.19,9.61c0,3.63-0.74,6.84-2.22,9.61s-3.59,4.92-6.31,6.45
				C364.38,219.9,361.2,220.67,357.57,220.67z M367.32,202.38c0-3.39-0.87-6.15-2.62-8.28c-1.75-2.13-4.07-3.19-6.99-3.19
				c-2.87,0-5.2,1.08-6.99,3.23c-1.79,2.15-2.71,4.88-2.76,8.17c0,3.4,0.87,6.14,2.62,8.25c1.74,2.1,4.07,3.15,6.99,3.15
				c2.91,0,5.27-1.08,7.06-3.23C366.42,208.34,367.32,205.64,367.32,202.38z"/>
			<path class="st0" d="M412.7,219.74h-4.37l-1.72-2.87c-1.48,1.2-3.07,2.13-4.77,2.8c-1.7,0.67-3.33,1-4.91,1
				c-3.54,0-6.61-0.76-9.21-2.29c-2.61-1.53-4.61-3.68-6.02-6.45c-1.41-2.77-2.12-6-2.12-9.68c0-3.63,0.71-6.82,2.12-9.57
				c1.41-2.75,3.44-4.88,6.09-6.38c2.65-1.51,5.75-2.26,9.29-2.26c1.1,0,2.32,0.21,3.66,0.61c1.33,0.41,2.63,0.99,3.87,1.76V169.9
				l8.1-0.72V219.74z M397.07,213.72c1.44,0,2.75-0.23,3.94-0.68s2.39-1.18,3.59-2.19v-17.06c-1.14-1.01-2.32-1.73-3.51-2.19
				c-1.2-0.45-2.53-0.68-4.02-0.68c-2.87,0-5.13,1.05-6.78,3.15c-1.65,2.11-2.48,4.81-2.48,8.1c0,3.49,0.83,6.29,2.48,8.39
				C391.95,212.66,394.21,213.72,397.07,213.72z"/>
			<path class="st0" d="M436.58,184.03c5.11,0,8.99,1.7,11.61,5.09c2.63,3.4,3.95,7.72,3.95,12.98v2.37h-24.09
				c0.72,6.21,4.42,9.32,11.11,9.32c1.86,0,3.52-0.25,4.98-0.75c1.46-0.5,3.22-1.28,5.27-2.33l2.44,5.88
				c-3.87,2.68-8.15,4.01-12.84,4.01c-6.31,0-11.13-1.64-14.45-4.91c-3.33-3.27-4.99-7.73-4.99-13.37c0-3.63,0.68-6.82,2.05-9.57
				c1.36-2.75,3.32-4.89,5.88-6.42C430.07,184.79,433.09,184.03,436.58,184.03z M436.37,190.91c-2.29,0-4.15,0.72-5.56,2.15
				c-1.41,1.43-2.28,3.44-2.62,6.02h16.2c-0.43-2.68-1.32-4.71-2.65-6.09C440.41,191.61,438.61,190.91,436.37,190.91z"/>
			<path class="st0" d="M484.34,220.67c-1.72,0-3.74-0.3-6.06-0.9c-2.32-0.6-4.19-1.42-5.63-2.47l2.44-5.59
				c3.3,1.58,6.38,2.37,9.25,2.37c1.82,0,3.37-0.33,4.66-1s1.94-1.58,1.94-2.72c0-2.1-2.29-3.9-6.88-5.38
				c-7.65-2.49-11.47-6.02-11.47-10.61c0-3.2,1.2-5.72,3.59-7.57c2.39-1.84,5.64-2.76,9.75-2.76c1.63,0,3.57,0.31,5.84,0.93
				s4.17,1.46,5.7,2.51l-2.51,5.45c-1.68-0.76-3.22-1.35-4.63-1.76c-1.41-0.41-2.93-0.61-4.56-0.61c-1.48,0-2.72,0.36-3.73,1.07
				c-1.01,0.72-1.51,1.6-1.51,2.65c0.05,0.81,0.62,1.55,1.72,2.22c1.1,0.67,2.63,1.34,4.59,2.01c7.89,2.82,11.83,6.65,11.83,11.47
				c0,3.4-1.23,6.02-3.69,7.89C492.52,219.74,488.97,220.67,484.34,220.67z"/>
			<path class="st0" d="M520.48,220.67c-3.64,0-6.79-0.76-9.47-2.29c-2.68-1.53-4.74-3.67-6.2-6.42c-1.46-2.75-2.19-5.96-2.19-9.64
				c0-3.63,0.73-6.82,2.19-9.57c1.46-2.75,3.55-4.89,6.27-6.42c2.72-1.53,5.9-2.3,9.53-2.3c3.64,0,6.8,0.75,9.5,2.26
				c2.7,1.51,4.78,3.65,6.24,6.42c1.46,2.77,2.19,5.98,2.19,9.61c0,3.63-0.74,6.84-2.22,9.61c-1.48,2.77-3.59,4.92-6.31,6.45
				C527.29,219.9,524.11,220.67,520.48,220.67z M530.23,202.38c0-3.39-0.87-6.15-2.62-8.28c-1.75-2.13-4.07-3.19-6.99-3.19
				c-2.87,0-5.2,1.08-6.99,3.23c-1.79,2.15-2.71,4.88-2.76,8.17c0,3.4,0.87,6.14,2.62,8.25c1.74,2.1,4.07,3.15,6.99,3.15
				c2.91,0,5.27-1.08,7.06-3.23C529.33,208.34,530.23,205.64,530.23,202.38z"/>
			<path class="st0" d="M546.79,191.41h-5.3v-6.17h5.3v-3.66c0-3.78,1.09-6.75,3.26-8.93c2.17-2.18,5.17-3.26,9-3.26
				c1.05,0,2.21,0.18,3.48,0.54c1.27,0.36,2.24,0.8,2.9,1.33l-2.22,6.02c-1.53-0.57-2.73-0.86-3.59-0.86
				c-1.63,0-2.82,0.55-3.59,1.65c-0.76,1.1-1.15,2.61-1.15,4.52v2.65h6.45l2.58,6.17h-9.03v44.82h-8.1V191.41z"/>
			<path class="st0" d="M579.2,185.25h6.31l2.44,6.17h-8.75v16.56c0,1.86,0.42,3.36,1.25,4.48c0.84,1.12,2.09,1.68,3.76,1.68
				c1.1,0,2.3-0.29,3.59-0.86l2.22,5.95c-0.72,0.48-1.71,0.9-2.98,1.26c-1.27,0.36-2.43,0.54-3.48,0.54c-3.87,0-6.91-1-9.11-3.01
				c-2.2-2.01-3.3-4.9-3.3-8.68v-17.93h-4.8v-6.17h4.8v-8.53l8.03-1.58V185.25z"/>
		</g>
	</g>
</g>
<g id="Layer_2">
</g>
</svg>
