<svg width="42" height="42" viewBox="0 0 42 42" fill="none" xmlns="http://www.w3.org/2000/svg">
<path d="M39.375 13.125L2.625 13.125C1.17526 13.125 0 11.9497 0 10.5L0 5.25C0 3.80026 1.17526 2.625 2.625 2.625L39.375 2.625C40.8247 2.625 42 3.80026 42 5.25V10.5C42 11.9497 40.8247 13.125 39.375 13.125ZM35.4375 5.90625C34.3502 5.90625 33.4688 6.78768 33.4688 7.875C33.4688 8.96232 34.3502 9.84375 35.4375 9.84375C36.5248 9.84375 37.4062 8.96232 37.4062 7.875C37.4062 6.78768 36.5248 5.90625 35.4375 5.90625ZM30.1875 5.90625C29.1002 5.90625 28.2188 6.78768 28.2188 7.875C28.2188 8.96232 29.1002 9.84375 30.1875 9.84375C31.2748 9.84375 32.1562 8.96232 32.1562 7.875C32.1562 6.78768 31.2748 5.90625 30.1875 5.90625ZM39.375 26.25H2.625C1.17526 26.25 0 25.0747 0 23.625L0 18.375C0 16.9253 1.17526 15.75 2.625 15.75L39.375 15.75C40.8247 15.75 42 16.9253 42 18.375V23.625C42 25.0747 40.8247 26.25 39.375 26.25ZM35.4375 19.0312C34.3502 19.0312 33.4688 19.9127 33.4688 21C33.4688 22.0873 34.3502 22.9688 35.4375 22.9688C36.5248 22.9688 37.4062 22.0873 37.4062 21C37.4062 19.9127 36.5248 19.0312 35.4375 19.0312ZM30.1875 19.0312C29.1002 19.0312 28.2188 19.9127 28.2188 21C28.2188 22.0873 29.1002 22.9688 30.1875 22.9688C31.2748 22.9688 32.1562 22.0873 32.1562 21C32.1562 19.9127 31.2748 19.0312 30.1875 19.0312ZM39.375 39.375H2.625C1.17526 39.375 0 38.1997 0 36.75L0 31.5C0 30.0503 1.17526 28.875 2.625 28.875H39.375C40.8247 28.875 42 30.0503 42 31.5V36.75C42 38.1997 40.8247 39.375 39.375 39.375ZM35.4375 32.1562C34.3502 32.1562 33.4688 33.0377 33.4688 34.125C33.4688 35.2123 34.3502 36.0938 35.4375 36.0938C36.5248 36.0938 37.4062 35.2123 37.4062 34.125C37.4062 33.0377 36.5248 32.1562 35.4375 32.1562ZM30.1875 32.1562C29.1002 32.1562 28.2188 33.0377 28.2188 34.125C28.2188 35.2123 29.1002 36.0938 30.1875 36.0938C31.2748 36.0938 32.1562 35.2123 32.1562 34.125C32.1562 33.0377 31.2748 32.1562 30.1875 32.1562Z" fill="#F5DF4D"/>
</svg>
