<?xml version="1.0" encoding="utf-8"?>
<!-- Generator: Adobe Illustrator 24.1.3, SVG Export Plug-In . SVG Version: 6.00 Build 0)  -->
<svg version="1.1" id="Layer_1" xmlns="http://www.w3.org/2000/svg" xmlns:xlink="http://www.w3.org/1999/xlink" x="0px" y="0px"
	 viewBox="0 0 674.1 134.7" style="enable-background:new 0 0 674.1 134.7;" xml:space="preserve">
<style type="text/css">
	.st0{fill:#EE465A;}
</style>
<g>
	<path class="st0" d="M133.7,76.2c31.8,0,57.5,25.8,57.5,57.5h76.2C267.5,59.9,207.6,0,133.7,0S0,59.9,0,133.7h76.2
		C76.2,102,101.9,76.2,133.7,76.2z"/>
	<g>
		<g>
			<path class="st0" d="M336.2,66.4h15l-11.4,67.3h-21.6l-11.5-67.3h15l7.3,50.5L336.2,66.4z"/>
			<path class="st0" d="M380.1,65.6c6,0,11.1,2.1,15.4,6.3c4.3,4.2,6.4,9.4,6.4,15.5v46.3h-4.7l-2.5-5.1c-4,4-8.8,6-14.5,6h-1.9
				c-5.7,0-10.6-2.1-14.7-6.2c-4.1-4.1-6.1-9-6.1-14.7v-3c0-5.8,2-10.7,6.1-14.8c4.1-4.1,9-6.1,14.7-6.1h1.9c2.1,0,4.3,0.4,6.8,1.1
				v-6.3c0-1.9-0.6-3.5-1.9-4.8s-2.9-2-4.8-2h-0.8c-1.8,0-3.4,0.7-4.8,1.9c-1.4,1.3-2,2.9-2,4.9l-15,3v-0.3c0-6.1,2.1-11.2,6.4-15.5
				c4.3-4.2,9.4-6.3,15.4-6.3L380.1,65.6L380.1,65.6z M386.9,114.4v-4.2c0-2.5-0.7-4.4-2-5.8c-1.3-1.4-3.2-2.1-5.5-2.1H379
				c-2.3,0-4.1,0.7-5.5,2.1s-2,3.4-2,5.8v4.2c0,2.5,0.7,4.4,2,5.8c1.4,1.4,3.2,2.1,5.5,2.1h0.3c2.3,0,4.1-0.7,5.5-2.1
				C386.2,118.8,386.9,116.9,386.9,114.4z"/>
			<polygon class="st0" points="375.8,51.2 375.8,60.9 383.4,60.9 388.3,51.2 			"/>
			<path class="st0" d="M432.7,134.7c-5.9,0-10.9-2.1-15.1-6.3c-4.2-4.2-6.3-9.2-6.3-15v-2.1h15v4.6c0,1.8,0.6,3.4,1.9,4.6
				s2.7,1.8,4.5,1.8h0.2c1.8,0,3.3-0.6,4.5-1.9c1.2-1.3,1.9-2.8,1.9-4.5v-4.6c0-3.4-2.8-5.9-8.6-7.5c-2.9-0.7-5.4-1.5-7.3-2.4
				c-2-0.8-3.9-1.9-5.9-3.2c-2-1.3-3.4-2.8-4.4-4.7c-1-1.8-1.4-4-1.4-6.4v-1.3c0-5.5,2-10.3,5.9-14.3s8.7-6,14.4-6h1.6
				c5.6,0,10.4,2,14.4,5.9c4,4,5.9,8.7,5.9,14.3v1.3h-15v-3.3c0-1.6-0.6-3-1.7-4.2c-1.1-1.2-2.6-1.8-4.2-1.8h-0.2
				c-1.7,0-3.1,0.6-4.3,1.8c-1.2,1.2-1.7,2.6-1.7,4.2v2.8c0,1.8,0.7,3.3,2.2,4.3c1.5,1,3.6,2,6.5,2.8c6.2,1.6,10.9,3.6,14.1,5.9
				c3.2,2.3,4.8,6.1,4.8,11.1v2.5c0,5.9-2.1,10.9-6.3,15c-4.2,4.2-9.2,6.2-15.1,6.2L432.7,134.7L432.7,134.7z"/>
			<path class="st0" d="M486.2,65.6c6,0,11.1,2.1,15.4,6.3c4.3,4.2,6.4,9.4,6.4,15.5v46.3h-4.7l-2.5-5.1c-4,4-8.8,6-14.5,6h-1.9
				c-5.7,0-10.6-2.1-14.7-6.2c-4.1-4.1-6.1-9-6.1-14.7v-3c0-5.8,2-10.7,6.1-14.8c4.1-4.1,9-6.1,14.7-6.1h1.9c2.1,0,4.3,0.4,6.8,1.1
				v-6.3c0-1.9-0.6-3.5-1.9-4.8c-1.3-1.3-2.9-2-4.8-2h-0.8c-1.8,0-3.4,0.7-4.8,1.9c-1.4,1.3-2,2.9-2,4.9l-15,3v-0.3
				c0-6.1,2.1-11.2,6.4-15.5c4.3-4.2,9.4-6.3,15.4-6.3L486.2,65.6L486.2,65.6z M481.9,51.2v9.7h7.6l4.8-9.7H481.9L481.9,51.2z
				 M492.9,114.4v-4.2c0-2.5-0.7-4.4-2-5.8c-1.3-1.4-3.2-2.1-5.5-2.1h-0.3c-2.3,0-4.1,0.7-5.5,2.1c-1.4,1.4-2,3.4-2,5.8v4.2
				c0,2.5,0.7,4.4,2,5.8c1.4,1.4,3.2,2.1,5.5,2.1h0.3c2.3,0,4.1-0.7,5.5-2.1C492.3,118.8,492.9,116.9,492.9,114.4z"/>
			<path class="st0" d="M541,66.4h6.1v12.3H541c-1.8,0-3.4,0.7-4.8,2c-1.4,1.4-2,3-2,4.8v48.2h-15V66.4h4.7l2.9,5.3
				C530.9,68.2,535.6,66.4,541,66.4z"/>
			<path class="st0" d="M579.7,121.4h5.3v12.3h-5.3c-6,0-11.2-2.1-15.5-6.4c-4.3-4.3-6.4-9.4-6.4-15.4V78.8h-4.6V66.4h4.6l7.4-14.8
				h7.6v14.8h10.7v12.3h-10.7v35.9c0,1.8,0.7,3.4,2.1,4.8C576.2,120.8,577.8,121.4,579.7,121.4z"/>
			<path class="st0" d="M614.1,65.6c6,0,11.1,2.1,15.4,6.3c4.3,4.2,6.4,9.4,6.4,15.5v11c0,1.4-0.5,2.5-1.4,3.5
				c-0.9,0.9-2.1,1.4-3.5,1.4h-24v12.1c0,1.9,0.7,3.5,2,4.9c1.3,1.4,2.9,2,4.8,2h0.2c1.8,0,3.4-0.7,4.8-2c1.4-1.3,2-3,2-4.9v-4.1h15
				v1.5c0,6.1-2.1,11.3-6.4,15.5c-4.3,4.3-9.4,6.4-15.4,6.4h-0.2c-6,0-11.1-2.1-15.4-6.4c-4.3-4.3-6.4-9.4-6.4-15.5V87.4
				c0-6.1,2.1-11.2,6.4-15.5s9.4-6.3,15.4-6.3L614.1,65.6L614.1,65.6z M610,51.2v9.7h7.6l4.8-9.7H610L610,51.2z M607.1,84.8v7.2
				h13.8v-7.2c0-1.9-0.7-3.5-2-4.8c-1.4-1.3-3-2-4.8-2h-0.2c-1.9,0-3.5,0.7-4.8,2C607.7,81.3,607.1,82.9,607.1,84.8z"/>
			<path class="st0" d="M668,66.4h6.1v12.3H668c-1.8,0-3.4,0.7-4.8,2c-1.4,1.4-2,3-2,4.8v48.2h-15V66.4h4.7l2.9,5.3
				C657.9,68.2,662.6,66.4,668,66.4z"/>
		</g>
	</g>
</g>
</svg>
