<svg width="1920" height="227" viewBox="0 0 1920 227" fill="none" xmlns="http://www.w3.org/2000/svg">
<path d="M2006.5 131.006C1916.5 73.506 1658.3 -20.994 1345.5 61.006C954.5 163.506 922.5 -9.49378 741.5 1.50622C560.5 12.5062 261.5 198.506 113 163.506C-5.8 135.506 -69.5 83.5061 -86.5 61.006" stroke="#00A6FB" stroke-width="2"/>
<path d="M2006 159.512C1916 102.012 1657.8 7.51239 1345 89.5124C954 192.012 922 19.0126 741 30.0126C560 41.0126 261 227.013 112.5 192.013C-6.3 164.013 -70 112.012 -87 89.5124" stroke="#00A6FB" stroke-width="2"/>
<path d="M2006 188.512C1916 131.012 1657.8 36.5124 1345 118.512C954 221.012 922 48.0126 741 59.0126C560 70.0126 261 256.013 112.5 221.013C-6.3 193.013 -70 141.012 -87 118.512" stroke="#00A6FB" stroke-width="2"/>
</svg>
