<svg width="42" height="42" viewBox="0 0 42 42" fill="none" xmlns="http://www.w3.org/2000/svg">
<path d="M38.0625 0H11.8125C9.63867 0 7.875 1.76367 7.875 3.9375V7.875H3.9375C1.76367 7.875 0 9.63867 0 11.8125V38.0625C0 40.2363 1.76367 42 3.9375 42H30.1875C32.3613 42 34.125 40.2363 34.125 38.0625V34.125H38.0625C40.2363 34.125 42 32.3613 42 30.1875V3.9375C42 1.76367 40.2363 0 38.0625 0ZM30.1875 38.0625H3.9375V21H30.1875V38.0625ZM38.0625 30.1875H34.125V11.8125C34.125 9.63867 32.3613 7.875 30.1875 7.875H11.8125V3.9375H38.0625V30.1875Z" fill="#F5DF4D"/>
</svg>
